<svg width="884" height="625" viewBox="0 0 884 625" fill="none" xmlns="http://www.w3.org/2000/svg">
<g id="login">
<path id="Vector" d="M784.53 425.111C820.956 334.044 809.937 232.357 762.957 154.259L271.184 222.351L742.46 124.134C543.837 -123.551 157.247 40.7357 194.512 353.455L784.53 425.111Z" fill="#202434"/>
<path id="Vector_2" d="M818 358H133V551H818V358Z" fill="#6C63FF"/>
<path id="Vector_3" d="M198 625C307.352 625 396 612.688 396 597.5C396 582.312 307.352 570 198 570C88.6476 570 0 582.312 0 597.5C0 612.688 88.6476 625 198 625Z" fill="#E6E6E6"/>
<g id="Group 3">
<path id="Vector_4" d="M865.209 476.963H304.791C299.807 476.963 295.028 474.983 291.504 471.459C287.98 467.935 286 463.156 286 458.172C489.151 434.562 688.485 434.562 884 458.172C884 463.156 882.02 467.935 878.496 471.459C874.972 474.983 870.193 476.963 865.209 476.963Z" fill="#2F2E41"/>
<path id="Vector_5" d="M884 459.277L286 458.172L355.306 341.556L355.638 341.004V83.9964C355.637 80.8769 356.252 77.7878 357.445 74.9057C358.639 72.0236 360.389 69.4049 362.595 67.1991C364.8 64.9932 367.419 63.2435 370.301 62.0498C373.183 60.8562 376.272 60.2419 379.392 60.2422H787.292C790.412 60.2419 793.501 60.8562 796.383 62.0498C799.265 63.2435 801.883 64.9932 804.089 67.1991C806.295 69.4049 808.045 72.0236 809.239 74.9057C810.432 77.7878 811.046 80.8769 811.046 83.9964V342.772L884 459.277Z" fill="#3F3D56"/>
<path id="Vector_6" d="M378.85 76.8225C376.799 76.8248 374.832 77.6408 373.382 79.0913C371.931 80.5419 371.115 82.5086 371.113 84.56V318.896C371.115 320.948 371.931 322.915 373.382 324.365C374.832 325.816 376.799 326.632 378.85 326.634H791.15C793.201 326.631 795.168 325.815 796.618 324.365C798.069 322.914 798.885 320.948 798.887 318.896V84.56C798.885 82.5086 798.069 80.542 796.618 79.0914C795.168 77.6409 793.201 76.8249 791.15 76.8225H378.85Z" fill="white"/>
<path id="Vector_7" d="M380.578 357.584C379.944 357.585 379.324 357.767 378.79 358.109C378.256 358.451 377.831 358.939 377.565 359.514L356.21 405.939C355.977 406.445 355.876 407 355.914 407.555C355.953 408.11 356.13 408.646 356.43 409.114C356.73 409.582 357.143 409.968 357.631 410.235C358.119 410.502 358.666 410.641 359.222 410.641H808.314C808.879 410.641 809.435 410.497 809.929 410.222C810.423 409.946 810.838 409.549 811.135 409.069C811.432 408.588 811.601 408.039 811.627 407.474C811.652 406.91 811.532 406.348 811.279 405.842L788.067 359.417C787.793 358.865 787.37 358.401 786.846 358.077C786.322 357.753 785.718 357.582 785.102 357.584H380.578Z" fill="#2F2E41"/>
<path id="Vector_8" d="M583.342 72.9538C586.089 72.9538 588.316 70.7268 588.316 67.9797C588.316 65.2325 586.089 63.0056 583.342 63.0056C580.595 63.0056 578.368 65.2325 578.368 67.9797C578.368 70.7268 580.595 72.9538 583.342 72.9538Z" fill="white"/>
<path id="Vector_9" d="M539.2 419.484C538.471 419.485 537.763 419.726 537.184 420.169C536.605 420.613 536.189 421.234 535.998 421.938L530.641 441.834C530.509 442.326 530.491 442.841 530.59 443.341C530.689 443.84 530.901 444.31 531.211 444.714C531.521 445.118 531.919 445.445 532.375 445.67C532.832 445.896 533.334 446.013 533.843 446.013H635.717C636.246 446.013 636.767 445.887 637.237 445.644C637.706 445.402 638.112 445.051 638.418 444.62C638.725 444.189 638.924 443.692 638.999 443.168C639.074 442.645 639.023 442.111 638.85 441.612L631.963 421.715C631.737 421.064 631.314 420.499 630.752 420.099C630.191 419.7 629.519 419.485 628.829 419.484H539.2Z" fill="#2F2E41"/>
<path id="Vector_10" d="M811.046 337.135V341.556H355.306L355.649 341.004V337.135H811.046Z" fill="#2F2E41"/>
<path id="Vector_11" d="M798.335 154.75C841.068 154.75 875.71 120.108 875.71 77.3752C875.71 34.6421 841.068 0 798.335 0C755.601 0 720.959 34.6421 720.959 77.3752C720.959 120.108 755.601 154.75 798.335 154.75Z" fill="#6C63FF"/>
<path id="Vector_12" d="M830.39 111.089H766.279C765.107 111.088 763.983 110.621 763.154 109.792C762.325 108.964 761.859 107.84 761.858 106.667V67.9797C761.859 66.8074 762.325 65.6835 763.154 64.8546C763.983 64.0257 765.107 63.5595 766.279 63.5582H830.39C831.562 63.5595 832.686 64.0257 833.515 64.8546C834.344 65.6835 834.81 66.8074 834.811 67.9797V106.667C834.81 107.84 834.344 108.964 833.515 109.792C832.686 110.621 831.562 111.088 830.39 111.089ZM766.279 67.9797V106.667H830.393L830.39 67.9797L766.279 67.9797Z" fill="white"/>
<path id="Vector_13" d="M818.231 67.9796H778.438V50.2939C778.438 37.484 786.806 28.1866 798.334 28.1866C809.863 28.1866 818.231 37.484 818.231 50.2939L818.231 67.9796ZM782.859 63.5582H813.81V50.2939C813.81 39.8809 807.446 32.6081 798.335 32.6081C789.223 32.6081 782.859 39.8809 782.859 50.2939L782.859 63.5582Z" fill="white"/>
<path id="Vector_14" d="M798.335 90.6395C800.776 90.6395 802.756 88.66 802.756 86.2181C802.756 83.7762 800.776 81.7966 798.335 81.7966C795.893 81.7966 793.913 83.7762 793.913 86.2181C793.913 88.66 795.893 90.6395 798.335 90.6395Z" fill="white"/>
<path id="Vector_15" d="M744.32 247.149H425.68C424.116 247.148 422.616 246.525 421.51 245.419C420.403 244.313 419.781 242.813 419.779 241.249V162.208C419.781 160.643 420.403 159.144 421.51 158.037C422.616 156.931 424.116 156.309 425.68 156.307H744.32C745.884 156.309 747.384 156.931 748.49 158.037C749.596 159.144 750.219 160.643 750.221 162.208V241.249C750.219 242.813 749.596 244.313 748.49 245.419C747.384 246.525 745.884 247.148 744.32 247.149ZM425.68 158.667C424.741 158.668 423.841 159.042 423.178 159.705C422.514 160.369 422.141 161.269 422.14 162.208V241.249C422.141 242.187 422.514 243.087 423.178 243.751C423.841 244.415 424.741 244.788 425.68 244.789H744.32C745.259 244.788 746.158 244.415 746.822 243.751C747.486 243.087 747.859 242.187 747.86 241.249V162.208C747.859 161.269 747.486 160.369 746.822 159.705C746.158 159.042 745.259 158.668 744.32 158.667L425.68 158.667Z" fill="#E6E6E6"/>
<path id="Vector_16" d="M475.19 222.732C488.465 222.732 499.227 211.97 499.227 198.695C499.227 185.42 488.465 174.659 475.19 174.659C461.915 174.659 451.154 185.42 451.154 198.695C451.154 211.97 461.915 222.732 475.19 222.732Z" fill="#E6E6E6"/>
<path id="Vector_17" d="M530.703 182.671C530.176 182.67 529.655 182.773 529.168 182.974C528.681 183.175 528.239 183.47 527.866 183.842C527.494 184.214 527.198 184.656 526.996 185.143C526.794 185.629 526.691 186.151 526.691 186.677C526.691 187.204 526.794 187.725 526.996 188.212C527.198 188.698 527.494 189.14 527.866 189.512C528.239 189.884 528.681 190.179 529.168 190.38C529.655 190.581 530.176 190.684 530.703 190.683H719.561C720.623 190.683 721.642 190.261 722.393 189.51C723.145 188.759 723.567 187.74 723.567 186.677C723.567 185.615 723.145 184.596 722.393 183.844C721.642 183.093 720.623 182.671 719.561 182.671H530.703Z" fill="#E6E6E6"/>
<path id="Vector_18" d="M530.703 206.708C529.641 206.708 528.622 207.13 527.87 207.881C527.119 208.632 526.697 209.651 526.697 210.714C526.697 211.776 527.119 212.795 527.87 213.546C528.622 214.298 529.641 214.72 530.703 214.72H611.969C613.032 214.72 614.05 214.298 614.802 213.546C615.553 212.795 615.975 211.776 615.975 210.714C615.975 209.651 615.553 208.632 614.802 207.881C614.05 207.13 613.032 206.708 611.969 206.708H530.703Z" fill="#E6E6E6"/>
</g>
<g id="Group 2">
<path id="Vector_19" d="M319.485 352.027C325.106 356.392 327.162 357.801 328.359 357.622C386.359 374.512 335.513 394.306 307.333 360.707L319.485 352.027Z" fill="#FFB8B8"/>
<path id="Vector_20" d="M128.099 530.467V570.121L156.649 568.535L148.719 527.295L128.099 530.467Z" fill="#FFB8B8"/>
<path id="Vector_21" d="M286.713 530.467V570.121L258.162 568.535L266.093 527.295L286.713 530.467Z" fill="#FFB8B8"/>
<path id="Vector_22" d="M199.475 325.855L242.301 324.269C341.095 427.84 303.733 404.218 300.988 546.329L248.646 530.468L259.749 432.127C259.754 432.123 262.677 430.174 260.248 430.13C245.051 435.352 233.963 370.693 201.061 378.198C163.621 376.407 157.525 431.949 142.374 432.127L153.477 530.468L101.134 546.329C95.2739 390.163 66.5514 425.441 159.822 324.269L199.475 325.855Z" fill="#2F2E41"/>
<path id="Vector_23" d="M136.029 557.432C136.029 557.432 129.685 544.743 121.754 551.088C113.823 557.432 94.7898 576.466 94.7898 576.466C94.7898 576.466 48.7916 597.086 77.3422 609.775C105.893 622.464 129.685 592.327 129.685 592.327C156.879 586.657 172.565 583.026 158.143 553.363C149.955 556.906 138.369 561.008 136.029 557.432Z" fill="#2F2E41"/>
<path id="Vector_24" d="M278.782 557.432C278.782 557.432 285.127 544.743 293.058 551.088C300.988 557.432 320.022 576.466 320.022 576.466C320.022 576.466 366.02 597.086 337.47 609.775C308.919 622.464 285.127 592.327 285.127 592.327C257.933 586.657 242.247 583.026 256.669 553.363C264.856 556.906 276.443 561.008 278.782 557.432Z" fill="#2F2E41"/>
<path id="Vector_25" d="M242.301 146.621C239.942 186.107 186.053 182.631 185.2 146.621C187.559 107.136 241.448 110.612 242.301 146.621Z" fill="#FFB8B8"/>
<path id="Vector_26" d="M201.061 167.241C214.937 209.179 182.177 186.347 228.026 219.584L245.473 184.689C245.473 184.689 232.784 179.93 234.37 162.483L201.061 167.241Z" fill="#FFB8B8"/>
<path id="Vector_27" d="M286.713 191.033L239.431 180.241C240.76 208.751 210.335 203.013 205.027 188.672L159.822 214.826C178.795 285.493 173.987 288.408 148.719 333.786C139.075 342.592 153.497 347.639 166.052 342.821C175.628 336.91 180.491 331.658 190.752 332.995C239.237 343.09 279.6 345.473 285.988 341.528C288.274 338.257 285.922 191.601 286.713 191.033Z" fill="#575A89"/>
<path id="Vector_28" d="M274.024 194.206C275.61 194.206 283.78 190.364 283.78 190.364C307.551 189.963 323.503 349.861 324.78 354.406L308.919 365.509L283.541 300.477L274.024 194.206Z" fill="#575A89"/>
<path id="Vector_29" d="M162.994 379.784C163.805 385.77 165.185 452.995 189.266 421.593C192.426 398.683 181.684 391.844 178.855 376.612L162.994 379.784Z" fill="#FFB8B8"/>
<path id="Vector_30" d="M169.338 214.826L164.479 212.131C151.449 211.703 155.556 246.192 150.043 271.45C145.54 300.875 146.822 333.32 152.105 376.697C152.567 392.615 181.078 382.587 185.2 381.37C185.2 381.37 175.683 316.339 180.441 305.236C185.2 294.133 169.338 214.826 169.338 214.826Z" fill="#575A89"/>
<path id="Vector_31" d="M241.053 118.944C236.648 111.791 229.754 106.52 221.696 104.146L215.778 108.881L218.079 103.358C216.144 103.063 214.185 102.95 212.229 103.02L206.904 109.867L209.108 103.255C186.259 105.708 172.741 131.938 184.603 150.296C186.433 144.672 188.653 139.396 190.483 133.773C191.921 133.969 193.379 133.976 194.819 133.794L197.045 128.599L197.667 133.574C204.567 132.973 214.802 131.653 221.343 130.444L220.707 126.627L224.513 129.799C226.517 129.337 227.707 128.919 227.609 128.599C232.474 136.442 237.295 141.452 242.16 149.295C244.006 138.232 247.267 129.036 241.053 118.944Z" fill="#2F2E41"/>
</g>
</g>
</svg>
