<svg width="252" height="253" viewBox="0 0 252 253" fill="none" xmlns="http://www.w3.org/2000/svg">
<g id="LOGO">
<g id="Ellipse 2">
<g filter="url(#filter0_i_17_5)">
<path d="M252 126.5C252 196.088 195.588 252.5 126 252.5C56.4121 252.5 0 196.088 0 126.5C0 56.9121 56.4121 0.5 126 0.5C195.588 0.5 252 56.9121 252 126.5Z" fill="#020202"/>
</g>
<path d="M251.5 126.5C251.5 195.812 195.312 252 126 252C56.6883 252 0.5 195.812 0.5 126.5C0.5 57.1883 56.6883 1 126 1C195.312 1 251.5 57.1883 251.5 126.5Z" stroke="black"/>
</g>
<g id="Ellipse 1" filter="url(#filter1_f_17_5)">
<circle cx="126" cy="126" r="89" fill="white"/>
</g>
<g id="P" filter="url(#filter2_d_17_5)">
<path d="M117.747 66.0767C122.739 65.8332 126.3 65.7114 128.43 65.7114C150.649 65.7114 161.758 76.9424 161.758 99.4043C161.758 109.083 159.597 116.722 155.275 122.323C150.953 127.862 144.5 130.632 135.917 130.632C129.465 130.632 123.226 129.506 117.199 127.253C117.199 108.444 117.382 88.0516 117.747 66.0767ZM96.1069 181.308C96.8374 166.09 97.2026 146.946 97.2026 123.875C97.2026 104.274 96.8983 87.3211 96.2896 73.0161C96.1678 70.7638 89.3805 68.9681 75.9277 67.6289C74.8929 63.6113 75.0146 59.6851 76.293 55.8501C82.7454 56.0936 89.6849 56.2458 97.1113 56.3066C104.538 56.3675 113.06 56.3371 122.678 56.2153C132.356 56.0936 139.448 56.0327 143.953 56.0327C160.814 56.0327 173.658 59.9894 182.485 67.9028C191.311 75.8162 195.725 86.3776 195.725 99.5869C195.725 112.918 190.824 123.358 181.024 130.906C171.284 138.454 158.623 142.228 143.04 142.228C138.657 142.228 134.73 141.832 131.261 141.041C131.261 158.268 131.443 171.751 131.809 181.491C131.809 181.856 132.235 182.343 133.087 182.952C134 183.56 135.309 184.139 137.013 184.687C138.778 185.234 141.609 185.782 145.505 186.33C149.462 186.817 151.744 187.121 152.353 187.243C153.388 190.652 153.205 194.396 151.805 198.474C129.343 197.987 115.708 197.744 110.899 197.744C107.368 197.744 95.7721 197.987 76.1104 198.474C74.5885 194.274 74.5885 190.348 76.1104 186.695C89.3197 185.356 95.9852 183.56 96.1069 181.308ZM158.014 99.4043C158.014 80.5339 149.218 70.6117 131.626 69.6377C131.382 83.0905 131.261 101.535 131.261 124.971C133.513 126.006 135.948 126.645 138.565 126.888C144.896 126.279 149.705 123.54 152.992 118.67C156.34 113.801 158.014 107.379 158.014 99.4043ZM99.8506 181.491C99.7288 185.995 92.6676 188.917 78.667 190.256C78.18 191.23 78.18 192.661 78.667 194.548C89.0153 194.183 99.7593 194 110.899 194C123.865 194 136.313 194.183 148.244 194.548C148.731 193.574 148.731 192.143 148.244 190.256C128.035 189.039 117.869 186.117 117.747 181.491C117.382 164.264 117.199 148.224 117.199 133.371C124.808 136.78 133.422 138.484 143.04 138.484C155.397 138.484 164.923 134.862 171.619 127.619C178.376 120.375 181.754 111.031 181.754 99.5869C181.754 87.5951 177.95 77.9772 170.341 70.7334C162.732 63.4287 151.744 59.7764 137.378 59.7764C132.935 59.7764 126.695 59.8677 118.66 60.0503C110.625 60.2329 103.412 60.3242 97.02 60.3242C90.6893 60.3242 84.6325 60.1416 78.8496 59.7764C78.3626 60.8721 78.3626 62.3026 78.8496 64.0679C81.5889 64.3114 83.8411 64.5549 85.6064 64.7983C87.3717 65.0418 89.5327 65.4679 92.0894 66.0767C94.646 66.6854 96.5635 67.568 97.8418 68.7246C99.181 69.8203 99.9115 71.1899 100.033 72.8335C100.642 87.1385 100.946 104.152 100.946 123.875C100.946 143.172 100.581 162.377 99.8506 181.491Z" fill="black"/>
</g>
</g>
<defs>
<filter id="filter0_i_17_5" x="0" y="0.5" width="255" height="256" filterUnits="userSpaceOnUse" color-interpolation-filters="sRGB">
<feFlood flood-opacity="0" result="BackgroundImageFix"/>
<feBlend mode="normal" in="SourceGraphic" in2="BackgroundImageFix" result="shape"/>
<feColorMatrix in="SourceAlpha" type="matrix" values="0 0 0 0 0 0 0 0 0 0 0 0 0 0 0 0 0 0 127 0" result="hardAlpha"/>
<feOffset dx="3" dy="4"/>
<feGaussianBlur stdDeviation="2"/>
<feComposite in2="hardAlpha" operator="arithmetic" k2="-1" k3="1"/>
<feColorMatrix type="matrix" values="0 0 0 0 0 0 0 0 0 0 0 0 0 0 0 0 0 0 0.25 0"/>
<feBlend mode="normal" in2="shape" result="effect1_innerShadow_17_5"/>
</filter>
<filter id="filter1_f_17_5" x="6" y="6" width="240" height="240" filterUnits="userSpaceOnUse" color-interpolation-filters="sRGB">
<feFlood flood-opacity="0" result="BackgroundImageFix"/>
<feBlend mode="normal" in="SourceGraphic" in2="BackgroundImageFix" result="shape"/>
<feGaussianBlur stdDeviation="15.5" result="effect1_foregroundBlur_17_5"/>
</filter>
<filter id="filter2_d_17_5" x="73.8276" y="55.8501" width="129.897" height="150.624" filterUnits="userSpaceOnUse" color-interpolation-filters="sRGB">
<feFlood flood-opacity="0" result="BackgroundImageFix"/>
<feColorMatrix in="SourceAlpha" type="matrix" values="0 0 0 0 0 0 0 0 0 0 0 0 0 0 0 0 0 0 127 0" result="hardAlpha"/>
<feOffset dx="4" dy="4"/>
<feGaussianBlur stdDeviation="2"/>
<feComposite in2="hardAlpha" operator="out"/>
<feColorMatrix type="matrix" values="0 0 0 0 0 0 0 0 0 0 0 0 0 0 0 0 0 0 1 0"/>
<feBlend mode="normal" in2="BackgroundImageFix" result="effect1_dropShadow_17_5"/>
<feBlend mode="normal" in="SourceGraphic" in2="effect1_dropShadow_17_5" result="shape"/>
</filter>
</defs>
</svg>
