<svg width="752" height="556" viewBox="0 0 752 556" fill="none" xmlns="http://www.w3.org/2000/svg">
<g id="registration">
<path id="Vector" d="M387.319 64.2338C402.473 64.2338 414.758 51.9491 414.758 36.7951C414.758 21.6411 402.473 9.35638 387.319 9.35638C372.165 9.35638 359.88 21.6411 359.88 36.7951C359.88 51.9491 372.165 64.2338 387.319 64.2338Z" fill="#FFB8B8"/>
<g id="Group 1">
<g id="signup 1" clip-path="url(#clip0_5_399)">
<path id="Vector_2" d="M19.9 554.23C19.9 554.89 20.43 555.42 21.09 555.42H750.38C751.04 555.42 751.57 554.89 751.57 554.23C751.57 553.57 751.04 553.04 750.38 553.04H21.09C20.43 553.04 19.9 553.57 19.9 554.23Z" fill="#3F3D58"/>
<path id="Vector_3" d="M253.43 111.15H19.53C10.61 111.15 3.34998 103.89 3.34998 94.97C3.34998 86.05 10.61 78.79 19.53 78.79H253.43C262.35 78.79 269.61 86.05 269.61 94.97C269.61 103.89 262.35 111.15 253.43 111.15ZM19.53 80.79C11.71 80.79 5.34998 87.15 5.34998 94.97C5.34998 102.79 11.71 109.15 19.53 109.15H253.43C261.25 109.15 267.61 102.79 267.61 94.97C267.61 87.15 261.25 80.79 253.43 80.79H19.53Z" fill="#E2E3E4"/>
<path id="Vector_4" d="M253.43 300.5H19.53C10.88 300.5 3.84998 293.47 3.84998 284.82C3.84998 276.17 10.88 269.14 19.53 269.14H253.43C262.08 269.14 269.11 276.17 269.11 284.82C269.11 293.47 262.08 300.5 253.43 300.5Z" fill="#6C63FF"/>
<path id="Vector_5" d="M176.78 47.36H15.68C7.03 47.36 0 40.33 0 31.68C0 23.03 7.03 16 15.68 16H176.78C185.43 16 192.46 23.03 192.46 31.68C192.46 40.33 185.43 47.36 176.78 47.36Z" fill="#E2E3E4"/>
<path id="Vector_6" d="M253.43 174.43H19.53C10.61 174.43 3.34998 167.17 3.34998 158.25C3.34998 149.33 10.61 142.07 19.53 142.07H253.43C262.35 142.07 269.61 149.33 269.61 158.25C269.61 167.17 262.35 174.43 253.43 174.43ZM19.53 144.07C11.71 144.07 5.34998 150.43 5.34998 158.25C5.34998 166.07 11.71 172.43 19.53 172.43H253.43C261.25 172.43 267.61 166.07 267.61 158.25C267.61 150.43 261.25 144.07 253.43 144.07H19.53Z" fill="#E2E3E4"/>
<path id="Vector_7" d="M253.43 237.72H19.53C10.61 237.72 3.34998 230.46 3.34998 221.54C3.34998 212.62 10.61 205.36 19.53 205.36H253.43C262.35 205.36 269.61 212.62 269.61 221.54C269.61 230.46 262.35 237.72 253.43 237.72ZM19.53 207.36C11.71 207.36 5.34998 213.72 5.34998 221.54C5.34998 229.36 11.71 235.72 19.53 235.72H253.43C261.25 235.72 267.61 229.36 267.61 221.54C267.61 213.72 261.25 207.36 253.43 207.36H19.53Z" fill="#E2E3E4"/>
<path id="Vector_8" d="M11.49 67.17H72.79C74.25 67.17 75.44 68.35 75.44 69.82C75.44 71.28 74.25 72.47 72.79 72.47H11.49C10.03 72.47 8.84003 71.29 8.84003 69.82C8.84003 68.36 10.03 67.17 11.49 67.17Z" fill="#E2E3E4"/>
<path id="Vector_9" d="M11.49 131.95H72.79C74.25 131.95 75.44 133.13 75.44 134.59C75.44 136.05 74.25 137.24 72.79 137.24H11.49C10.03 137.24 8.84003 136.06 8.84003 134.6C8.84003 133.14 10.03 131.95 11.49 131.95Z" fill="#E2E3E4"/>
<path id="Vector_10" d="M11.49 196.74H72.79C74.25 196.74 75.44 197.92 75.44 199.39C75.44 200.85 74.25 202.03 72.79 202.03H11.49C10.03 202.03 8.84003 200.85 8.84003 199.38C8.84003 197.92 10.03 196.74 11.49 196.74Z" fill="#E2E3E4"/>
<path id="Vector_11" d="M465 391C558.336 391 634 315.336 634 222C634 128.664 558.336 53 465 53C371.664 53 296 128.664 296 222C296 315.336 371.664 391 465 391Z" fill="#F2F2F2"/>
<path id="Vector_12" d="M464.435 357.255C383.661 357.259 313.382 297.003 303 214.818L304.984 214.567C315.238 295.738 384.661 355.25 464.437 355.255C471.214 355.255 477.986 354.828 484.71 353.976C572.696 342.861 635.234 262.237 624.119 174.251L626.104 174C637.357 263.08 574.041 344.708 484.961 355.96C478.153 356.822 471.297 357.254 464.435 357.255Z" fill="#3F3D56"/>
</g>
<path id="Vector_13" d="M492.317 337.564H460.513C459.834 337.565 459.163 337.413 458.551 337.118C457.938 336.823 457.401 336.394 456.978 335.861C456.561 335.343 456.267 334.736 456.117 334.088C455.968 333.439 455.967 332.765 456.116 332.116C459.102 318.931 458.959 305.23 455.696 292.111C455.443 291.108 455.547 290.048 455.989 289.112C456.43 288.177 457.183 287.423 458.118 286.981C471.402 280.763 483.601 280.925 494.375 287.461C494.94 287.799 495.424 288.256 495.794 288.8C496.164 289.344 496.411 289.963 496.518 290.612C498.802 304.875 498.889 319.403 496.777 333.692C496.628 334.768 496.093 335.753 495.273 336.465C494.453 337.176 493.403 337.567 492.317 337.564Z" fill="#6C63FF"/>
<path id="Vector_14" d="M491.834 316.729H467.516C466.912 316.727 466.333 316.486 465.906 316.059C465.48 315.631 465.24 315.052 465.24 314.447C465.24 313.843 465.48 313.264 465.906 312.836C466.333 312.408 466.912 312.168 467.516 312.166H491.834C492.438 312.168 493.017 312.408 493.444 312.836C493.87 313.264 494.11 313.843 494.11 314.447C494.11 315.052 493.87 315.631 493.444 316.059C493.017 316.486 492.438 316.727 491.834 316.729Z" fill="white"/>
<path id="Vector_15" d="M491.834 308.729H467.516C466.912 308.727 466.333 308.486 465.906 308.059C465.48 307.631 465.24 307.052 465.24 306.447C465.24 305.843 465.48 305.264 465.906 304.836C466.333 304.408 466.912 304.168 467.516 304.166H491.834C492.438 304.168 493.017 304.408 493.444 304.836C493.87 305.264 494.11 305.843 494.11 306.447C494.11 307.052 493.87 307.631 493.444 308.059C493.017 308.486 492.438 308.727 491.834 308.729Z" fill="white"/>
<path id="Vector_16" d="M449.969 275.786L440.654 185.622L438.196 148.514L464.268 143.799C464.268 143.799 468.172 169.31 471.588 184.28C474.958 199.053 467.098 273.806 466.889 275.778C468.804 277.49 470.154 279.743 470.76 282.239C471.367 284.735 471.201 287.357 470.285 289.756C469.369 292.156 467.747 294.221 465.631 295.679C463.516 297.136 461.009 297.917 458.44 297.919C455.871 297.92 453.363 297.141 451.246 295.686C449.13 294.23 447.505 292.167 446.587 289.768C445.669 287.369 445.501 284.748 446.105 282.251C446.709 279.754 448.056 277.5 449.969 275.786Z" fill="#FFB8B8"/>
<path id="Vector_17" d="M343.427 552.628H330.163L323.853 501.469L343.429 501.469L343.427 552.628Z" fill="#FFB6B6"/>
<path id="Vector_18" d="M460.323 552.628H447.06L440.75 501.469L460.326 501.469L460.323 552.628Z" fill="#FFB6B6"/>
<path id="Vector_19" d="M440.151 278.818L451.306 384.798C451.306 384.798 466.157 490.915 463.368 505.557C460.579 520.199 464.066 522.291 464.066 522.291L438.618 520.479C438.618 520.479 439.315 511.415 435.131 507.231C430.948 503.048 433.04 490.497 433.04 490.497L383.674 317.863L353.693 408.505C353.693 408.505 348.812 508.21 348.115 509.605C347.418 510.999 345.326 529.825 345.326 529.825H319.528C319.528 529.825 323.014 518.669 318.133 515.183C313.253 511.696 309.069 514.485 313.253 508.21C317.436 501.935 318.831 494.265 317.436 490.779C316.042 487.293 316.042 473.348 316.042 473.348C316.042 473.348 318.133 285.093 329.986 278.818C341.84 272.542 440.151 278.818 440.151 278.818Z" fill="#2F2E41"/>
<path id="Vector_20" d="M468.663 158.184L441.677 167.862L433.458 170.807L427.459 94.18L448.048 105.1C448.082 105.125 448.113 105.155 448.138 105.19C451.704 109.128 454.689 113.556 457.001 118.339C468.292 141.292 468.663 158.184 468.663 158.184Z" fill="#3F3D56"/>
<path id="Vector_21" d="M282.759 269.313C282.759 269.313 310.187 184.094 310.666 183.072C314.259 155.791 324.591 143.758 326.14 145.064L352.808 154.303C352.808 154.303 344.876 179.422 339.505 194.342C334.373 208.599 299.227 274.422 298.24 276.141C299.3 278.481 299.624 281.087 299.17 283.616C298.716 286.144 297.506 288.475 295.698 290.3C293.891 292.125 291.572 293.359 289.049 293.837C286.525 294.316 283.916 294.017 281.565 292.981C279.215 291.944 277.235 290.218 275.887 288.032C274.539 285.845 273.887 283.301 274.016 280.736C274.145 278.17 275.051 275.705 276.612 273.665C278.173 271.625 280.317 270.107 282.759 269.313Z" fill="#FFB8B8"/>
<path id="Vector_22" d="M365.619 99.1148C365.619 99.1148 342.529 87.799 333.574 110.024C327.71 125.012 324.932 131.55 321.017 147.161C321.017 147.161 344.552 150.692 352.098 163.992L365.619 99.1148Z" fill="#3F3D56"/>
<path id="Vector_23" d="M449.633 290.369C396.495 301.343 326.075 282.476 326.075 282.476L344.861 201.046L338.182 115.829C337.366 105.407 343.302 95.6389 352.536 92.1773L365.286 87.4017L375.825 72.3137L405.928 73.3014L417.962 89.1415L427.459 94.1799L448.048 105.099L448.138 105.145V105.19L441.677 167.862L437.781 205.65C437.781 205.65 449.615 248.149 447.187 253.786C444.758 259.413 446.87 256.695 447.459 259.703C448.048 262.712 449.851 262.902 450.123 268.829C450.404 274.746 449.633 290.369 449.633 290.369Z" fill="#3F3D56"/>
</g>
<path id="Vector_24" d="M417.084 27.0244C414.916 24.8852 418.18 19.222 417.564 16.2391C416.857 12.8191 413.088 12.719 412.189 9.34439C411.222 5.71413 407.354 3.73784 403.778 2.5873C394.61 -0.34607 384.828 -0.794104 375.431 1.28896C371.272 2.30448 367.177 3.56594 363.167 5.06668C360.4 6.04078 363.069 3.39004 360.301 4.36415C359.253 4.59769 358.328 5.21109 357.706 6.08603C357.208 7.02683 357.879 8.53146 358.926 8.34087C355.547 9.831 352.168 11.3211 348.789 12.8113C350.684 14.7964 352.579 16.7817 354.474 18.767C351.78 18.0002 348.908 21.2123 349.97 23.8041C350.398 24.6223 351.017 25.3243 351.776 25.8497C352.535 26.3751 353.41 26.7081 354.327 26.8199C357.37 27.4122 355.062 30.3088 358.162 30.2524C361.262 30.196 382.882 23.8409 384.389 26.5507C385.462 28.4803 385.344 31.0363 386.876 32.6261C388.837 34.66 392.26 33.9162 394.756 32.592C397.251 31.2679 399.782 29.448 402.589 29.7655C405.52 30.0969 407.737 35.5128 408.458 38.3726C409.18 41.2324 408.724 44.2414 408.265 47.155C407.662 50.9814 401.621 54.8077 401.018 58.6339C407.722 60.4879 414.913 54.5891 417.564 44.3308C417.3 37.8461 421.705 31.5826 417.084 27.0244Z" fill="#2F2E41"/>
</g>
<defs>
<clipPath id="clip0_5_399">
<rect width="751.57" height="539.42" fill="white" transform="translate(0 16)"/>
</clipPath>
</defs>
</svg>
