<svg width="65" height="65" viewBox="0 0 65 65" fill="none" xmlns="http://www.w3.org/2000/svg">
<g id="logo">
<circle id="Ellipse 1" cx="32.5" cy="32.5" r="32.5" fill="#222222"/>
<g id="Vector" filter="url(#filter0_i_2_5)">
<path d="M43.9407 9.03949C38.7592 10.1141 33.5777 11.1886 28.3962 12.2632C26.0662 12.7464 23.4568 12.9972 21.3398 14.157C19.2874 15.2814 17.85 17.6406 18.5842 20.0023C19.2853 22.2577 21.3549 23.6725 23.5747 24.1754C26.0376 24.7334 28.676 24.7295 31.1864 24.9236C33.8049 25.126 36.4234 25.3285 39.0418 25.5309C40.288 25.6272 41.5407 25.6938 42.784 25.822C43.1817 25.863 43.6153 25.9118 43.9418 26.1645C43.9369 26.1607 44.0521 26.233 43.9882 26.2442C43.9758 26.2463 43.9747 26.1623 43.9765 26.1567C44.027 25.9993 44.0062 26.1482 43.9655 26.1486C43.9513 26.1487 43.5762 26.3969 43.367 26.436C42.8025 26.5417 42.1797 26.4649 41.6077 26.4551C40.3648 26.4339 39.1213 26.4574 37.8801 26.5252C35.3821 26.6616 32.8874 26.9728 30.4305 27.4442C28.0137 27.9079 25.6083 28.5253 23.2873 29.3477C21.0368 30.1451 18.6798 31.6594 18.6186 34.3311C18.5611 36.8404 20.7346 38.6037 22.9481 39.2341C24.0865 39.5583 25.2863 39.6758 26.454 39.8498C27.7568 40.0439 29.0596 40.238 30.3625 40.4321C32.9247 40.8139 35.4869 41.1956 38.0491 41.5774C39.352 41.7715 40.6548 41.9656 41.9576 42.1597C42.5651 42.2502 43.1761 42.3282 43.7816 42.4315C44.0048 42.4695 44.2153 42.5398 44.4355 42.5851C44.2877 42.5547 44.4711 42.5549 44.4408 42.5894C44.5373 42.6486 44.5375 42.6397 44.4415 42.5626L44.3761 42.4663C44.2265 42.046 44.2317 41.9906 44.5045 41.4935C44.5566 41.3986 44.6624 41.4966 44.5275 41.4816C44.3836 41.4657 44.6139 41.4636 44.4605 41.527C44.3838 41.5587 44.3005 41.5803 44.2207 41.6024C43.6174 41.7696 42.9854 41.8569 42.3713 41.9777C41.0949 42.2287 39.8184 42.4797 38.542 42.7308C36.0316 43.2245 33.5212 43.718 31.0109 44.2118C26.5887 45.0818 21.8923 46.2583 19.2421 50.2547C18.6656 51.124 18.2472 52.1258 18.0382 53.1477C17.8662 53.9887 18.2817 54.8666 19.1478 55.1049C19.9333 55.3211 20.929 54.8394 21.1019 53.9936C21.9414 49.8886 26.4264 48.4143 30.1146 47.6313C32.5595 47.1123 35.0195 46.6581 37.4719 46.1758C39.9436 45.6897 42.4545 45.294 44.905 44.7113C45.9352 44.4663 47.053 43.8319 47.3409 42.7318C47.6562 41.5272 47.0626 40.3644 45.9725 39.8033C44.9269 39.2651 43.6841 39.2226 42.5417 39.0524C41.2823 38.8648 40.0229 38.6771 38.7635 38.4895C36.2013 38.1077 33.639 37.726 31.0768 37.3442C29.8174 37.1566 28.558 36.969 27.2986 36.7813C26.1309 36.6073 24.9313 36.4899 23.7927 36.1656C23.0224 35.9462 22.2342 35.5698 21.8939 34.8352C21.7842 34.5984 21.756 34.426 21.8309 34.1596C21.9337 33.7939 22.2196 33.4534 22.5379 33.2014C23.2714 32.6205 24.2643 32.3613 25.1362 32.0811C26.2804 31.7135 27.4372 31.3855 28.6039 31.0978C30.9203 30.5266 33.2747 30.1087 35.6493 29.877C36.8865 29.7563 38.1278 29.6796 39.3704 29.6473C40.5462 29.6167 41.724 29.6897 42.8983 29.6533C44.1499 29.6144 45.4381 29.2793 46.2974 28.3075C47.1817 27.3074 47.3967 25.9418 46.7815 24.743C45.564 22.3705 42.3381 22.6036 40.0892 22.4297C37.5144 22.2307 34.9396 22.0316 32.3647 21.8325C29.957 21.6464 27.4816 21.6072 25.0948 21.2361C24.2109 21.0986 23.1922 20.8456 22.5256 20.3181C21.9145 19.8345 21.5178 19.2004 21.5664 18.565C21.6115 17.974 22.2142 17.3212 22.845 16.9584C23.7301 16.4494 24.7743 16.2594 25.7628 16.0531C30.85 14.9908 35.9401 13.9423 41.0287 12.887C42.2809 12.6273 43.5331 12.3676 44.7853 12.108C45.6258 11.9336 46.1116 10.9408 45.8949 10.1507C45.6551 9.27677 44.7837 8.86467 43.9407 9.03949Z" fill="#32A8FE"/>
</g>
</g>
<defs>
<filter id="filter0_i_2_5" x="18" y="9.00002" width="29.4253" height="50.1564" filterUnits="userSpaceOnUse" color-interpolation-filters="sRGB">
<feFlood flood-opacity="0" result="BackgroundImageFix"/>
<feBlend mode="normal" in="SourceGraphic" in2="BackgroundImageFix" result="shape"/>
<feColorMatrix in="SourceAlpha" type="matrix" values="0 0 0 0 0 0 0 0 0 0 0 0 0 0 0 0 0 0 127 0" result="hardAlpha"/>
<feOffset dy="4"/>
<feGaussianBlur stdDeviation="2"/>
<feComposite in2="hardAlpha" operator="arithmetic" k2="-1" k3="1"/>
<feColorMatrix type="matrix" values="0 0 0 0 0 0 0 0 0 0 0 0 0 0 0 0 0 0 0.25 0"/>
<feBlend mode="normal" in2="shape" result="effect1_innerShadow_2_5"/>
</filter>
</defs>
</svg>
